<svg width="259" height="55" viewBox="0 0 259 55" fill="none" xmlns="http://www.w3.org/2000/svg">
<path d="M14.8576 15.5536C14.6544 15.4595 14.519 15.3615 14.4516 15.2597C14.3841 15.1579 14.363 15.0512 14.3883 14.9395C14.417 14.8205 14.4583 14.7029 14.5121 14.5868L17.4227 8.30429C17.4765 8.18815 17.5362 8.08794 17.6017 8.00367C17.6778 7.9155 17.7765 7.86424 17.8977 7.84988C18.0224 7.82827 18.1863 7.86455 18.3896 7.95871L20.6979 9.02814C21.0173 9.17611 21.3042 9.37516 21.5586 9.62529C21.813 9.87541 22.0096 10.1648 22.1482 10.4936C22.2941 10.8257 22.362 11.1834 22.352 11.5667C22.3492 11.9533 22.2486 12.3608 22.0502 12.7891C21.8551 13.2101 21.611 13.5466 21.3179 13.7988C21.0354 14.047 20.7202 14.2228 20.3726 14.3262C20.0249 14.4297 19.6734 14.4652 19.3181 14.4328C18.97 14.4038 18.6326 14.3137 18.306 14.1623L16.6619 13.4006L15.8245 15.2081C15.7707 15.3242 15.7057 15.4264 15.6296 15.5145C15.5607 15.6061 15.4657 15.659 15.3444 15.6734C15.2304 15.6911 15.0681 15.6512 14.8576 15.5536ZM17.2773 12.0723L18.9323 12.839C19.1573 12.9433 19.3808 12.9939 19.6026 12.9908C19.835 12.9839 20.0514 12.9166 20.2516 12.789C20.4552 12.654 20.6225 12.445 20.7537 12.1619C20.8714 11.9079 20.9178 11.6649 20.893 11.433C20.8788 11.1972 20.8009 10.9847 20.6593 10.7957C20.5249 10.61 20.3307 10.4583 20.0766 10.3406L18.4325 9.57886L17.2773 12.0723ZM21.2944 18.549C21.0984 18.4582 20.9684 18.3583 20.9043 18.2492C20.8441 18.1508 20.8267 18.0457 20.852 17.934C20.8773 17.8223 20.9185 17.7048 20.9757 17.5814L22.8472 13.5418C22.9077 13.4112 22.9707 13.3037 23.0362 13.2194C23.1051 13.1279 23.1948 13.0769 23.3055 13.0664C23.4267 13.0521 23.589 13.092 23.7922 13.1862C23.9882 13.277 24.118 13.3679 24.1816 13.4591C24.2524 13.5536 24.2802 13.6459 24.265 13.7358C24.2604 13.8218 24.2413 13.9012 24.2076 13.9737L24.0297 14.1294C24.0929 14.0881 24.1757 14.0427 24.278 13.9931C24.3837 13.9363 24.5095 13.8932 24.6554 13.8638C24.8046 13.8271 24.9672 13.8187 25.1432 13.8385C25.3225 13.851 25.5174 13.9061 25.7279 14.0036C25.815 14.044 25.9007 14.0969 25.985 14.1624C26.0799 14.224 26.1661 14.2948 26.2437 14.3748C26.3319 14.4509 26.4041 14.5329 26.4604 14.6207C26.5167 14.7085 26.5498 14.7988 26.5597 14.8915C26.573 14.977 26.5595 15.0634 26.5191 15.1505C26.4115 15.3827 26.2627 15.5518 26.0725 15.6577C25.8824 15.7636 25.7075 15.7795 25.5478 15.7056C25.4389 15.6551 25.3641 15.6072 25.3234 15.5619C25.2827 15.5166 25.2509 15.471 25.228 15.4252C25.2125 15.3827 25.177 15.3354 25.1218 15.2834C25.0738 15.2347 24.9845 15.1801 24.8538 15.1196C24.745 15.0691 24.624 15.0351 24.4911 15.0176C24.3654 15.0035 24.2385 15.0108 24.1106 15.0397C23.9826 15.0686 23.8626 15.1276 23.7507 15.2169C23.6422 15.2988 23.5543 15.4124 23.4871 15.5576L22.2613 18.2034C22.2041 18.3268 22.1411 18.4343 22.0722 18.5258C22.0067 18.6101 21.9134 18.6594 21.7921 18.6738C21.6708 18.6881 21.5049 18.6465 21.2944 18.549ZM27.4324 21.4721C27.084 21.3106 26.7731 21.0873 26.4997 20.8019C26.237 20.5126 26.0285 20.1824 25.8743 19.8112C25.7273 19.4433 25.6513 19.0554 25.6463 18.6475C25.6486 18.243 25.7422 17.8411 25.9271 17.4419C26.1054 17.0572 26.3444 16.7315 26.6443 16.4648C26.9442 16.1982 27.28 15.9967 27.6518 15.8603C28.0235 15.724 28.4047 15.6625 28.7952 15.6759C29.1964 15.6855 29.5857 15.7777 29.9631 15.9525C30.4713 16.1879 30.875 16.5249 31.1744 16.9634C31.4772 17.3946 31.6562 17.8743 31.7113 18.4024C31.7664 18.9305 31.6729 19.4558 31.4307 19.9785C31.239 20.3922 30.988 20.7344 30.6775 21.0049C30.3703 21.2682 30.0289 21.4627 29.6533 21.5884C29.281 21.7069 28.9012 21.7558 28.5141 21.7351C28.1341 21.7178 27.7736 21.6301 27.4324 21.4721ZM28.0059 20.1772C28.2454 20.2881 28.501 20.336 28.7726 20.3208C29.0548 20.3016 29.3169 20.2115 29.5591 20.0503C29.8085 19.8926 30.0039 19.6613 30.1451 19.3564C30.2763 19.0733 30.327 18.7926 30.2972 18.5143C30.2747 18.2394 30.1831 17.9898 30.0225 17.7655C29.862 17.5412 29.6401 17.3635 29.357 17.2323C29.0884 17.1079 28.815 17.0605 28.5367 17.0903C28.2618 17.1128 28.0068 17.2063 27.7719 17.3708C27.5476 17.5314 27.3716 17.7496 27.2438 18.0255C27.1026 18.3303 27.0488 18.6272 27.0824 18.9161C27.1195 19.1978 27.2183 19.4508 27.3789 19.6751C27.5501 19.8955 27.7591 20.0628 28.0059 20.1772ZM35.9675 25.3338C35.6336 25.1791 35.352 24.9781 35.1227 24.7308C34.9041 24.4796 34.7416 24.1927 34.6354 23.8702C34.5291 23.5476 34.4902 23.2034 34.5187 22.8374C34.5472 22.4715 34.6488 22.0998 34.8237 21.7223L35.8275 19.5556C35.8847 19.4322 35.946 19.3283 36.0115 19.2441C36.0804 19.1525 36.1755 19.0996 36.2967 19.0852C36.418 19.0709 36.5766 19.1091 36.7726 19.1999C36.9831 19.2974 37.1185 19.3954 37.1787 19.4938C37.2461 19.5956 37.2672 19.7024 37.2419 19.8141C37.2166 19.9258 37.1754 20.0434 37.1182 20.1668L36.1194 22.3226C35.9983 22.5839 35.9376 22.8291 35.9373 23.0582C35.9442 23.2907 36.0096 23.5017 36.1333 23.6913C36.2605 23.8736 36.4511 24.0236 36.7051 24.1413C36.9664 24.2624 37.2114 24.3142 37.4399 24.2966C37.6791 24.2752 37.8932 24.1936 38.0823 24.052C38.2747 23.9031 38.4298 23.7016 38.5475 23.4475L39.5564 21.2699C39.6135 21.1465 39.6749 21.0427 39.7404 20.9584C39.8092 20.8668 39.9026 20.8175 40.0205 20.8104C40.1418 20.7961 40.304 20.836 40.5073 20.9302C40.7105 21.0243 40.8422 21.1206 40.9025 21.219C40.9627 21.3175 40.9801 21.4225 40.9548 21.5342C40.9367 21.6493 40.9008 21.7649 40.847 21.8811L38.9553 25.9642C38.9049 26.073 38.8433 26.1679 38.7705 26.2488C38.705 26.3331 38.6117 26.3824 38.4904 26.3968C38.3764 26.4145 38.2178 26.3763 38.0145 26.2821C37.8693 26.2149 37.7616 26.1429 37.6913 26.0663C37.6249 26.0002 37.5817 25.9317 37.5617 25.8607C37.5523 25.7858 37.5538 25.716 37.5662 25.6512C37.5858 25.5898 37.6091 25.53 37.636 25.4719L37.8593 25.2183C37.7855 25.2635 37.6832 25.3131 37.5524 25.3671C37.4249 25.4138 37.274 25.4541 37.0996 25.4879C36.9358 25.5179 36.757 25.5232 36.5632 25.5039C36.3693 25.4846 36.1708 25.4279 35.9675 25.3338ZM42.3196 28.3163C41.9712 28.1549 41.6569 27.9388 41.3768 27.6679C41.1074 27.3932 40.8921 27.0775 40.7312 26.7208C40.5775 26.3674 40.4981 25.9868 40.4931 25.5789C40.4988 25.1671 40.6008 24.7471 40.7992 24.3188C40.9976 23.8906 41.2504 23.5448 41.5575 23.2815C41.8719 23.0216 42.2136 22.836 42.5825 22.7248C42.9514 22.6136 43.3278 22.5719 43.7116 22.5999C44.0954 22.6278 44.4616 22.7225 44.81 22.8839C45.064 23.0016 45.2868 23.1489 45.4782 23.3257C45.6768 23.5059 45.8361 23.6855 45.956 23.8645C46.0758 24.0435 46.1485 24.2006 46.174 24.3358C46.228 24.4666 46.2692 24.5871 46.2975 24.6972C46.3259 24.8073 46.3023 24.9154 46.2267 25.0215C46.1713 25.084 46.1066 25.1378 46.0328 25.183C45.9624 25.2208 45.8793 25.2573 45.7837 25.2924C45.5187 25.4077 45.3145 25.4012 45.1711 25.2731C45.1003 25.1785 45.0311 25.0804 44.9637 24.9786C44.8962 24.8768 44.8235 24.777 44.7454 24.6791C44.6779 24.5773 44.6018 24.4847 44.517 24.4013C44.4322 24.3179 44.3281 24.2477 44.2047 24.1905C43.9288 24.0627 43.6534 24.0101 43.3785 24.0326C43.1142 24.0512 42.8716 24.1372 42.6506 24.2905C42.437 24.4472 42.2662 24.6635 42.1384 24.9393C42.0107 25.2151 41.9544 25.4888 41.9696 25.7604C41.9955 26.0281 42.0851 26.2724 42.2385 26.4933C42.3951 26.707 42.6078 26.876 42.8764 27.0005C43.007 27.061 43.1371 27.1036 43.2667 27.1284C43.407 27.1493 43.536 27.1562 43.6539 27.1491C43.7752 27.1347 43.8783 27.112 43.9633 27.0808C44.0667 27.067 44.1611 27.0534 44.2466 27.0402C44.3321 27.0269 44.4112 27.037 44.4838 27.0707C44.5709 27.111 44.6392 27.1824 44.6888 27.2847C44.749 27.3831 44.7996 27.5212 44.8407 27.6989C44.8847 27.8515 44.8867 27.9803 44.8469 28.0853C44.8143 28.1937 44.7471 28.2816 44.6454 28.349C44.5508 28.4199 44.4234 28.4666 44.263 28.4893C44.1355 28.536 43.9628 28.5662 43.7449 28.5799C43.5376 28.5896 43.3063 28.5751 43.051 28.5361C42.803 28.5006 42.5592 28.4273 42.3196 28.3163ZM45.3006 21.0613L46.4539 21.0269C46.5433 21.0243 46.6349 21.0358 46.7288 21.0617C46.8226 21.0875 46.9013 21.146 46.9649 21.2372C47.0391 21.3245 47.0793 21.4754 47.0857 21.6899C47.0921 21.9045 47.045 22.0634 46.9442 22.1666C46.8469 22.2626 46.696 22.3029 46.4915 22.2875L45.0131 22.2242C44.9807 22.218 44.943 22.2137 44.9 22.2114C44.8676 22.2053 44.8296 22.1921 44.7861 22.1719C44.7425 22.1517 44.7043 22.1296 44.6714 22.1055C44.6491 22.0775 44.6287 22.0549 44.6103 22.0375L43.6061 20.9507C43.4694 20.808 43.4026 20.6669 43.4056 20.5272C43.4192 20.3836 43.5082 20.2485 43.6727 20.1219C43.8371 19.9953 43.9711 19.9251 44.0744 19.9113C44.1885 19.8936 44.2784 19.9088 44.3443 19.9569C44.4207 20.0012 44.4849 20.053 44.5368 20.1123L45.3006 21.0613ZM45.9537 29.9735C45.7577 29.8827 45.6277 29.7828 45.5636 29.6738C45.4961 29.572 45.4734 29.4688 45.4953 29.3644C45.5206 29.2527 45.5618 29.1351 45.619 29.0117L47.4956 24.9613C47.5494 24.8452 47.609 24.745 47.6745 24.6607C47.7506 24.5725 47.8457 24.5196 47.9597 24.5019C48.081 24.4875 48.2432 24.5274 48.4465 24.6216C48.6497 24.7157 48.7814 24.812 48.8416 24.9105C48.9091 25.0122 48.9302 25.119 48.9049 25.2307C48.8796 25.3424 48.8383 25.46 48.7812 25.5834L46.9097 29.6229C46.8525 29.7463 46.7895 29.8538 46.7206 29.9453C46.6551 30.0296 46.5617 30.0789 46.4405 30.0932C46.3265 30.111 46.1642 30.0711 45.9537 29.9735ZM48.9249 23.5604C48.7144 23.4628 48.5718 23.3615 48.4971 23.2563C48.433 23.1473 48.4116 23.0316 48.433 22.9093C48.4617 22.7903 48.5063 22.6655 48.5668 22.5348C48.6307 22.3969 48.6971 22.2822 48.766 22.1907C48.8421 22.1025 48.9444 22.0529 49.0729 22.0419C49.2048 22.0237 49.376 22.0633 49.5865 22.1608C49.8043 22.2617 49.9452 22.3667 50.0093 22.4757C50.0734 22.5848 50.0948 22.7005 50.0733 22.8228C50.0553 22.9379 50.0143 23.0644 49.9504 23.2023C49.8933 23.3257 49.8249 23.4351 49.7455 23.5305C49.666 23.626 49.5656 23.6809 49.4443 23.6952C49.3231 23.7096 49.1499 23.6646 48.9249 23.5604ZM50.3058 31.9898C49.9501 31.825 49.662 31.6475 49.4416 31.4572C49.2212 31.2669 49.0664 31.0586 48.9773 30.8321C48.8883 30.6057 48.8593 30.3542 48.8904 30.0777C48.9322 29.7973 49.0304 29.4901 49.1851 29.1562L51.324 24.5396C51.3845 24.4089 51.4475 24.3015 51.513 24.2172C51.5858 24.1363 51.6775 24.0906 51.7881 24.0801C51.9094 24.0658 52.068 24.104 52.264 24.1948C52.4672 24.289 52.599 24.3853 52.6592 24.4837C52.7266 24.5855 52.7477 24.6922 52.7224 24.8039C52.7077 24.9118 52.6735 25.0237 52.6197 25.1399L50.501 29.7129C50.4304 29.8654 50.3841 29.9938 50.3621 30.0983C50.3475 30.2061 50.3537 30.2972 50.381 30.3715C50.4189 30.442 50.4764 30.5083 50.5534 30.5704C50.641 30.6286 50.7502 30.688 50.8808 30.7486C51.0187 30.8125 51.1298 30.8772 51.2141 30.9426C51.3057 31.0115 51.3567 31.1013 51.3671 31.2119C51.3809 31.3153 51.3441 31.4614 51.2567 31.6501C51.1625 31.8533 51.0609 31.987 50.9519 32.0511C50.8534 32.1113 50.7484 32.1287 50.6367 32.1034C50.5322 32.0815 50.4219 32.0436 50.3058 31.9898ZM50.2924 25.5958L51.4088 26.1263L52.9316 26.7789C53.055 26.836 53.1571 26.901 53.2381 26.9737C53.3296 27.0426 53.3825 27.1377 53.3969 27.2589C53.4146 27.3729 53.3764 27.5316 53.2822 27.7348C53.1948 27.9235 53.1002 28.0516 52.9984 28.1191C52.8966 28.1866 52.7918 28.2129 52.684 28.1983C52.5795 28.1763 52.4656 28.1368 52.3422 28.0796L50.8932 27.3819L49.6796 26.8328C49.5015 26.7415 49.398 26.6318 49.3691 26.5038C49.3509 26.3719 49.3939 26.1935 49.4982 25.9685C49.5957 25.7579 49.7062 25.624 49.8298 25.5666C49.964 25.5054 50.1182 25.5151 50.2924 25.5958ZM54.5062 34.0152C54.0343 33.7966 53.6559 33.5287 53.3708 33.2115C53.093 32.8976 52.8949 32.5545 52.7764 32.1822C52.6686 31.8061 52.6286 31.426 52.6566 31.0422C52.6951 30.6545 52.7968 30.2828 52.9616 29.9271C53.2037 29.4045 53.5387 28.9954 53.9666 28.6999C54.3944 28.4044 54.8727 28.238 55.4013 28.2008C55.9372 28.1669 56.481 28.2778 57.0326 28.5334C57.4246 28.715 57.7408 28.9364 57.9813 29.1977C58.2217 29.459 58.3928 29.7366 58.4947 30.0307C58.6071 30.3208 58.6587 30.6092 58.6493 30.8959C58.6472 31.1858 58.594 31.4433 58.4898 31.6684C58.3115 32.0531 58.0877 32.2888 57.8183 32.3756C57.5561 32.4657 57.2871 32.4469 57.0112 32.3191L54.1367 30.9874C54.0297 31.2375 54.0067 31.487 54.0678 31.7357C54.1361 31.9878 54.2593 32.2168 54.4372 32.4227C54.6258 32.6247 54.8398 32.7811 55.0794 32.8921C55.2609 32.9762 55.4256 33.0393 55.5736 33.0814C55.7289 33.1269 55.864 33.1586 55.9791 33.1767C56.0976 33.1875 56.2015 33.1915 56.2909 33.1889C56.3875 33.1896 56.4753 33.1905 56.554 33.1918C56.6328 33.193 56.7029 33.2034 56.7644 33.2231C56.8476 33.2528 56.919 33.308 56.9787 33.3885C57.0383 33.4691 57.0684 33.5755 57.0687 33.708C57.0787 33.8007 57.0757 33.8831 57.06 33.9552C57.0549 34.0234 57.0389 34.0865 57.0119 34.1445C56.9447 34.2897 56.7937 34.3873 56.5589 34.4372C56.3276 34.4799 56.0337 34.4672 55.6773 34.3991C55.3248 34.3416 54.9344 34.2136 54.5062 34.0152ZM54.4949 30.2143L56.727 31.2484C56.8504 31.3056 56.9532 31.3312 57.0353 31.3251C57.1208 31.3119 57.1938 31.2399 57.2544 31.1092C57.3317 30.9423 57.3498 30.7699 57.3088 30.5922C57.271 30.4072 57.1819 30.238 57.0413 30.0847C56.9041 29.9242 56.7193 29.7901 56.487 29.6825C56.2185 29.5581 55.9501 29.4998 55.6819 29.5078C55.417 29.5086 55.1772 29.5694 54.9625 29.6903C54.755 29.8146 54.5992 29.9893 54.4949 30.2143ZM59.6872 36.3362C59.4187 36.2118 59.1875 36.0827 58.9938 35.9488C58.8074 35.8184 58.6582 35.6743 58.5461 35.5166C58.4413 35.3622 58.3753 35.1906 58.3482 35.0017C58.3244 34.8055 58.3376 34.5868 58.3877 34.3455C58.445 34.1075 58.5443 33.8361 58.6856 33.5313L61.117 28.2831C61.1742 28.1597 61.2355 28.0559 61.301 27.9716C61.3771 27.8835 61.4722 27.8305 61.5862 27.8128C61.7108 27.7912 61.8748 27.8275 62.078 27.9216C62.2812 28.0158 62.413 28.1121 62.4732 28.2105C62.5406 28.3123 62.5617 28.419 62.5364 28.5308C62.5217 28.6386 62.4858 28.7542 62.4286 28.8776L60.0174 34.0822C59.9535 34.2201 59.9069 34.3396 59.8777 34.4407C59.8591 34.5379 59.8582 34.6256 59.8748 34.7038C59.9021 34.7782 59.947 34.8431 60.0095 34.8985C60.0792 34.9572 60.1686 35.0118 60.2774 35.0623C60.3718 35.106 60.4502 35.1556 60.5127 35.211C60.5825 35.2697 60.619 35.3528 60.6222 35.4601C60.6326 35.5707 60.5925 35.724 60.5017 35.92C60.4075 36.1233 60.3131 36.2603 60.2186 36.3311C60.1313 36.4053 60.0427 36.4348 59.9528 36.4196C59.8629 36.4044 59.7743 36.3766 59.6872 36.3362ZM63.5442 38.2025C63.0724 37.9839 62.694 37.716 62.4089 37.3988C62.1311 37.0849 61.933 36.7418 61.8145 36.3695C61.7067 35.9933 61.6667 35.6133 61.6946 35.2295C61.7332 34.8418 61.8349 34.4701 61.9996 34.1144C62.2418 33.5918 62.5768 33.1827 63.0046 32.8872C63.4325 32.5917 63.9108 32.4253 64.4394 32.3881C64.9753 32.3542 65.519 32.4651 66.0707 32.7207C66.4627 32.9023 66.7789 33.1237 67.0193 33.385C67.2598 33.6463 67.4309 33.9239 67.5327 34.218C67.6452 34.5081 67.6967 34.7965 67.6874 35.0831C67.6853 35.3731 67.6321 35.6306 67.5279 35.8557C67.3496 36.2404 67.1258 36.4761 66.8563 36.5629C66.5942 36.653 66.3251 36.6342 66.0493 36.5064L63.1748 35.1747C63.0677 35.4248 63.0448 35.6743 63.1059 35.923C63.1742 36.1751 63.2974 36.4041 63.4753 36.61C63.6639 36.8119 63.8779 36.9684 64.1175 37.0794C64.2989 37.1635 64.4637 37.2266 64.6117 37.2687C64.7669 37.3142 64.9021 37.3459 65.0172 37.364C65.1356 37.3748 65.2395 37.3788 65.329 37.3762C65.4256 37.3769 65.5133 37.3778 65.5921 37.3791C65.6709 37.3803 65.741 37.3907 65.8024 37.4104C65.8856 37.4401 65.9571 37.4953 66.0168 37.5758C66.0764 37.6564 66.1064 37.7628 66.1068 37.8953C66.1167 37.988 66.1138 38.0704 66.0981 38.1425C66.0929 38.2107 66.0769 38.2738 66.05 38.3318C65.9828 38.477 65.8318 38.5746 65.597 38.6245C65.3656 38.6672 65.0718 38.6545 64.7154 38.5864C64.3629 38.5289 63.9725 38.4009 63.5442 38.2025ZM63.533 34.4016L65.7651 35.4357C65.8885 35.4929 65.9912 35.5185 66.0734 35.5124C66.1589 35.4992 66.2319 35.4272 66.2924 35.2965C66.3698 35.1296 66.3879 34.9572 66.3468 34.7795C66.3091 34.5945 66.2199 34.4253 66.0794 34.272C65.9421 34.1115 65.7574 33.9774 65.5251 33.8698C65.2565 33.7453 64.9881 33.6871 64.7199 33.6951C64.4551 33.6959 64.2153 33.7567 64.0006 33.8776C63.7931 34.0019 63.6372 34.1766 63.533 34.4016Z" fill="white"/>
<path d="M258.734 11.4419C258.978 11.3127 259.071 11.0101 258.942 10.7661L256.836 6.78901C256.707 6.54496 256.405 6.45186 256.161 6.58106C255.917 6.71027 255.823 7.01285 255.953 7.2569L257.824 10.7921L254.289 12.6636C254.045 12.7928 253.952 13.0954 254.081 13.3394C254.21 13.5835 254.513 13.6766 254.757 13.5474L258.734 11.4419ZM72.5 39L72.3229 39.4676C88.9916 45.7815 109.258 42.3575 128.095 36.0995C146.944 29.8374 164.487 20.691 175.711 15.4531L175.5 15L175.289 14.5469C164.013 19.809 146.556 28.9126 127.78 35.1505C108.992 41.3925 89.0084 44.7185 72.6771 38.5324L72.5 39ZM175.5 15L175.711 15.4531C186.859 10.2509 204.267 8.24983 220.568 8.06247C236.867 7.87513 251.929 9.50123 258.353 11.4779L258.5 11L258.647 10.5221C252.071 8.49878 236.883 6.87487 220.557 7.06253C204.233 7.25017 186.641 9.2491 175.289 14.5469L175.5 15Z" fill="white"/>
</svg>
