<svg width="500" height="70" viewBox="0 0 500 70" fill="none" xmlns="http://www.w3.org/2000/svg">
<g clip-path="url(#clip0_2_94)">
<mask id="mask0_2_94" style="mask-type:luminance" maskUnits="userSpaceOnUse" x="347" y="0" width="153" height="70">
<path d="M500 0H347.88V70H500V0Z" fill="white"/>
</mask>
<g mask="url(#mask0_2_94)">
<path d="M400.428 0C401.956 0 403.196 1.25634 403.196 2.80273V11.1973C403.196 12.5527 404.148 13.6868 405.411 13.9453L405.965 14H414.257C415.784 14 417.026 15.2564 417.026 16.8028V25.1972C417.026 26.7436 418.267 28 419.794 28H428.086C429.613 28 430.855 29.2564 430.855 30.8028V39.1972C430.855 40.5527 431.806 41.6868 433.07 41.9452L433.623 42H441.915C443.443 42 444.684 43.2564 444.684 44.8028V53.1972C444.684 54.5527 445.635 55.6868 446.898 55.9452L447.453 56H469.574C471.101 56 472.342 54.7436 472.342 53.1972V44.8028C472.342 43.2564 473.583 42 475.11 42H483.402C484.93 42 486.171 40.7436 486.171 39.1972V30.8028C486.171 29.2564 487.411 28 488.94 28H497.231C498.759 28 500 29.2564 500 30.8028V39.1972C500 40.7436 498.759 42 497.231 42H488.94C487.411 42 486.171 43.2564 486.171 44.8028V53.1972C486.171 54.7436 484.93 56 483.402 56H475.11C473.583 56 472.342 57.2564 472.342 58.8028V67.1975C472.342 68.7438 471.101 70 469.574 70H447.453C447.264 70 447.077 69.9819 446.898 69.945C445.635 69.6869 444.684 68.5525 444.684 67.1975V58.8028C444.684 57.2564 443.443 56 441.915 56H433.623C432.096 56 430.855 54.7436 430.855 53.1972V44.8028C430.855 43.2564 429.613 42 428.086 42H419.794C418.267 42 417.026 40.7436 417.026 39.1972V30.8028C417.026 29.2564 415.784 28 414.257 28H405.965C404.438 28 403.196 26.7436 403.196 25.1972V16.8028C403.196 15.2564 401.956 14 400.428 14H378.307C376.779 14 375.539 15.2564 375.539 16.8028V25.1972C375.539 26.7436 374.297 28 372.77 28H364.478C362.95 28 361.709 29.2564 361.709 30.8028V39.1972C361.709 40.7436 360.468 42 358.941 42H350.649C349.122 42 347.88 40.7436 347.88 39.1972V30.8028C347.88 29.2564 349.122 28 350.649 28H358.941C360.468 28 361.709 26.7436 361.709 25.1972V16.8028C361.709 15.2564 362.95 14 364.478 14H372.77C374.297 14 375.539 12.7437 375.539 11.1973V2.80273C375.539 1.25634 376.779 0 378.307 0H400.428Z" fill="white"/>
</g>
<mask id="mask1_2_94" style="mask-type:luminance" maskUnits="userSpaceOnUse" x="0" y="14" width="125" height="35">
<path d="M124.065 14.375H0V48.75H124.065V14.375Z" fill="white"/>
</mask>
<g mask="url(#mask1_2_94)">
<path d="M42.8588 14.375H24.813C23.5671 14.375 22.5572 15.401 22.5572 16.6667V23.5417C22.5572 24.8073 23.5671 25.8333 24.813 25.8333H42.8588C44.1046 25.8333 45.1145 24.8073 45.1145 23.5417V16.6667C45.1145 15.401 44.1046 14.375 42.8588 14.375Z" fill="white"/>
<path d="M31.5801 37.2917H2.25572C1.00993 37.2917 0 38.3177 0 39.5834V46.4584C0 47.724 1.00993 48.75 2.25572 48.75H31.5801C32.8259 48.75 33.8358 47.724 33.8358 46.4584V39.5834C33.8358 38.3177 32.8259 37.2917 31.5801 37.2917Z" fill="white"/>
<path d="M112.786 14.375C119.016 14.375 124.065 19.5051 124.065 25.8333V37.2917C124.065 43.6199 119.016 48.75 112.786 48.75H58.6511C57.4052 48.75 56.3931 47.7217 56.3931 46.4561V16.6689C56.3931 15.4033 57.4052 14.375 58.6511 14.375H112.786ZM106.574 20.1042V43.0208H112.213C115.329 43.0208 117.853 40.4557 117.853 37.2917V25.8333C117.853 22.6692 115.329 20.1042 112.213 20.1042H106.574Z" fill="white"/>
</g>
<path d="M139.19 49.125C137.12 49.125 135.274 48.675 133.653 47.775C132.057 46.875 130.786 45.65 129.838 44.1C128.915 42.55 128.454 40.775 128.454 38.775C128.454 36.775 128.915 35 129.838 33.45C130.786 31.9 132.057 30.675 133.653 29.775C135.274 28.875 137.12 28.425 139.19 28.425C141.259 28.425 143.092 28.875 144.688 29.775C146.309 30.675 147.581 31.9 148.504 33.45C149.426 35 149.888 36.775 149.888 38.775C149.888 40.775 149.426 42.55 148.504 44.1C147.581 45.65 146.309 46.875 144.688 47.775C143.092 48.675 141.259 49.125 139.19 49.125ZM139.19 43.95C140.087 43.95 140.885 43.725 141.584 43.275C142.282 42.825 142.83 42.2125 143.229 41.4375C143.628 40.6625 143.815 39.775 143.791 38.775C143.815 37.775 143.628 36.8875 143.229 36.1125C142.83 35.3125 142.282 34.6875 141.584 34.2375C140.885 33.7875 140.087 33.5625 139.19 33.5625C138.292 33.5625 137.481 33.7875 136.758 34.2375C136.06 34.6875 135.511 35.3125 135.112 36.1125C134.713 36.8875 134.526 37.775 134.551 38.775C134.526 39.775 134.713 40.6625 135.112 41.4375C135.511 42.2125 136.06 42.825 136.758 43.275C137.481 43.725 138.292 43.95 139.19 43.95ZM153.802 57V28.8375H159.488L159.712 33.3L158.59 32.9625C158.764 32.1375 159.188 31.3875 159.862 30.7125C160.535 30.0375 161.383 29.5 162.405 29.1C163.453 28.675 164.55 28.4625 165.697 28.4625C167.393 28.4625 168.902 28.9125 170.223 29.8125C171.545 30.6875 172.58 31.9 173.328 33.45C174.101 34.975 174.488 36.75 174.488 38.775C174.488 40.775 174.101 42.55 173.328 44.1C172.58 45.65 171.532 46.875 170.186 47.775C168.864 48.65 167.343 49.0875 165.622 49.0875C164.5 49.0875 163.428 48.875 162.405 48.45C161.383 48.025 160.522 47.45 159.824 46.725C159.126 46 158.665 45.2125 158.44 44.3625L159.824 43.8375V57H153.802ZM164.163 44.025C165.061 44.025 165.847 43.8125 166.52 43.3875C167.193 42.9375 167.717 42.325 168.091 41.55C168.465 40.775 168.652 39.85 168.652 38.775C168.652 37.725 168.465 36.8125 168.091 36.0375C167.717 35.2375 167.193 34.625 166.52 34.2C165.872 33.75 165.086 33.525 164.163 33.525C163.241 33.525 162.443 33.7375 161.769 34.1625C161.096 34.5875 160.572 35.2 160.198 36C159.824 36.8 159.637 37.725 159.637 38.775C159.637 39.85 159.824 40.775 160.198 41.55C160.572 42.325 161.096 42.9375 161.769 43.3875C162.443 43.8125 163.241 44.025 164.163 44.025ZM178.459 57V28.8375H184.145L184.369 33.3L183.247 32.9625C183.421 32.1375 183.845 31.3875 184.519 30.7125C185.192 30.0375 186.04 29.5 187.062 29.1C188.11 28.675 189.207 28.4625 190.354 28.4625C192.05 28.4625 193.559 28.9125 194.88 29.8125C196.202 30.6875 197.237 31.9 197.985 33.45C198.758 34.975 199.145 36.75 199.145 38.775C199.145 40.775 198.758 42.55 197.985 44.1C197.237 45.65 196.19 46.875 194.843 47.775C193.521 48.65 192 49.0875 190.279 49.0875C189.157 49.0875 188.085 48.875 187.062 48.45C186.04 48.025 185.18 47.45 184.481 46.725C183.783 46 183.322 45.2125 183.097 44.3625L184.481 43.8375V57H178.459ZM188.82 44.025C189.718 44.025 190.504 43.8125 191.177 43.3875C191.85 42.9375 192.374 42.325 192.748 41.55C193.122 40.775 193.309 39.85 193.309 38.775C193.309 37.725 193.122 36.8125 192.748 36.0375C192.374 35.2375 191.85 34.625 191.177 34.2C190.529 33.75 189.743 33.525 188.82 33.525C187.898 33.525 187.1 33.7375 186.426 34.1625C185.753 34.5875 185.229 35.2 184.855 36C184.481 36.8 184.294 37.725 184.294 38.775C184.294 39.85 184.481 40.775 184.855 41.55C185.229 42.325 185.753 42.9375 186.426 43.3875C187.1 43.8125 187.898 44.025 188.82 44.025ZM203.154 48.75V21H209.139V48.75H203.154ZM223.576 49.125C221.382 49.125 219.474 48.6875 217.853 47.8125C216.232 46.9125 214.973 45.7 214.075 44.175C213.177 42.625 212.728 40.8625 212.728 38.8875C212.728 37.3625 212.978 35.9625 213.476 34.6875C213.975 33.4125 214.673 32.3125 215.571 31.3875C216.469 30.4375 217.529 29.7125 218.751 29.2125C219.998 28.6875 221.357 28.425 222.828 28.425C224.224 28.425 225.496 28.675 226.643 29.175C227.815 29.675 228.825 30.375 229.673 31.275C230.521 32.175 231.17 33.2375 231.618 34.4625C232.067 35.6875 232.267 37.025 232.217 38.475L232.18 40.0875H216.357L215.496 36.7125H227.317L226.681 37.425V36.675C226.631 36.05 226.431 35.5 226.082 35.025C225.758 34.525 225.322 34.1375 224.773 33.8625C224.224 33.5875 223.601 33.45 222.903 33.45C221.93 33.45 221.095 33.65 220.397 34.05C219.723 34.425 219.212 34.9875 218.863 35.7375C218.514 36.4625 218.339 37.3625 218.339 38.4375C218.339 39.5375 218.564 40.5 219.012 41.325C219.486 42.125 220.16 42.75 221.032 43.2C221.93 43.65 222.99 43.875 224.212 43.875C225.06 43.875 225.808 43.75 226.456 43.5C227.13 43.25 227.853 42.825 228.626 42.225L231.431 46.2C230.658 46.875 229.835 47.425 228.963 47.85C228.09 48.275 227.192 48.5875 226.269 48.7875C225.372 49.0125 224.474 49.125 223.576 49.125ZM236.03 48.75V28.8375H241.716L241.978 35.325L240.855 34.0875C241.155 33.0125 241.641 32.05 242.314 31.2C243.012 30.35 243.823 29.675 244.746 29.175C245.668 28.675 246.653 28.425 247.701 28.425C248.15 28.425 248.561 28.4625 248.935 28.5375C249.334 28.6125 249.696 28.7 250.02 28.8L248.374 35.4375C248.1 35.2625 247.726 35.125 247.252 35.025C246.803 34.9 246.329 34.8375 245.83 34.8375C245.282 34.8375 244.771 34.9375 244.297 35.1375C243.823 35.3125 243.424 35.575 243.1 35.925C242.776 36.275 242.514 36.6875 242.314 37.1625C242.14 37.6375 242.052 38.175 242.052 38.775V48.75H236.03ZM261.564 49.125C259.494 49.125 257.649 48.675 256.028 47.775C254.432 46.875 253.16 45.65 252.213 44.1C251.29 42.55 250.829 40.775 250.829 38.775C250.829 36.775 251.29 35 252.213 33.45C253.16 31.9 254.432 30.675 256.028 29.775C257.649 28.875 259.494 28.425 261.564 28.425C263.634 28.425 265.467 28.875 267.063 29.775C268.684 30.675 269.956 31.9 270.878 33.45C271.801 35 272.262 36.775 272.262 38.775C272.262 40.775 271.801 42.55 270.878 44.1C269.956 45.65 268.684 46.875 267.063 47.775C265.467 48.675 263.634 49.125 261.564 49.125ZM261.564 43.95C262.462 43.95 263.26 43.725 263.958 43.275C264.656 42.825 265.205 42.2125 265.604 41.4375C266.003 40.6625 266.19 39.775 266.165 38.775C266.19 37.775 266.003 36.8875 265.604 36.1125C265.205 35.3125 264.656 34.6875 263.958 34.2375C263.26 33.7875 262.462 33.5625 261.564 33.5625C260.666 33.5625 259.856 33.7875 259.133 34.2375C258.435 34.6875 257.886 35.3125 257.487 36.1125C257.088 36.8875 256.901 37.775 256.926 38.775C256.901 39.775 257.088 40.6625 257.487 41.4375C257.886 42.2125 258.435 42.825 259.133 43.275C259.856 43.725 260.666 43.95 261.564 43.95ZM281.726 48.75L273.421 28.8375H280.042L284.98 43.725L283.521 43.875L288.608 28.8375H295.155L286.439 48.75H281.726ZM305.06 49.0875C303.39 49.0875 301.893 48.65 300.572 47.775C299.275 46.875 298.24 45.65 297.467 44.1C296.694 42.525 296.307 40.75 296.307 38.775C296.307 36.75 296.694 34.9625 297.467 33.4125C298.24 31.8625 299.3 30.65 300.647 29.775C301.993 28.875 303.527 28.425 305.248 28.425C306.195 28.425 307.055 28.5625 307.829 28.8375C308.627 29.1125 309.325 29.5 309.923 30C310.522 30.475 311.033 31.0375 311.457 31.6875C311.881 32.3125 312.193 32.9875 312.392 33.7125L311.158 33.5625V28.8375H317.105V48.75H311.046V43.95L312.392 43.9125C312.193 44.6125 311.868 45.275 311.42 45.9C310.971 46.525 310.422 47.075 309.774 47.55C309.125 48.025 308.402 48.4 307.604 48.675C306.806 48.95 305.958 49.0875 305.06 49.0875ZM306.706 44.025C307.629 44.025 308.427 43.8125 309.1 43.3875C309.774 42.9625 310.297 42.3625 310.671 41.5875C311.046 40.7875 311.233 39.85 311.233 38.775C311.233 37.7 311.046 36.775 310.671 36C310.297 35.2 309.774 34.5875 309.1 34.1625C308.427 33.7125 307.629 33.4875 306.706 33.4875C305.809 33.4875 305.023 33.7125 304.35 34.1625C303.701 34.5875 303.19 35.2 302.816 36C302.442 36.775 302.255 37.7 302.255 38.775C302.255 39.85 302.442 40.7875 302.816 41.5875C303.19 42.3625 303.701 42.9625 304.35 43.3875C305.023 43.8125 305.809 44.025 306.706 44.025Z" fill="white"/>
</g>
<defs>
<clipPath id="clip0_2_94">
<rect width="500" height="70" fill="white"/>
</clipPath>
</defs>
</svg>
